<svg width="657.9px" height="120.8px" xmlns="http://www.w3.org/2000/svg" viewBox="-78.9375 14.600000000000001 657.875 120.8" style="background: rgba(0, 0, 0, 0)" preserveAspectRatio="xMidYMid"><defs><linearGradient id="editing-gradient-gradient" x1="0" x2="1" y1="0.5" y2="0.5" gradientUnits="objectBoundingBox"><stop offset="0" stop-color="#004dff"></stop><stop offset="1" stop-color="rgba(90%, 100%, 0%, 0.99)"></stop></linearGradient></defs><g><g transform="matrix(1,0,0,1.4,24.2,107.5)"><path d="M 29.1 -5.7 L 15.2 -5.7 L 23.3 -47.9 L 37.4 -47.9 L 29.1 -5.7 Z M 84.9 -4.4 L 84.9 -4.4 L 84.9 -4.4 Q 77.1 -4.4 77.1 -10.4 L 77.1 -10.4 L 77.1 -10.4 Q 77.1 -13 78.2 -18.1 L 78.2 -18.1 L 78.2 -18.1 Q 79.4 -23.2 79.7 -25.2 L 79.7 -25.2 L 79.7 -25.2 Q 80.6 -29.9 80.6 -31.4 L 80.6 -31.4 L 80.6 -31.4 Q 80.6 -34.7 78.2 -34.7 L 78.2 -34.7 L 78.2 -34.7 Q 76.6 -34.7 75.1 -32.4 L 75.1 -32.4 L 75.1 -32.4 Q 73.5 -30.2 72.8 -25.8 L 72.8 -25.8 L 68.9 -5.7 L 56.4 -4.4 L 59.8 -21.8 L 59.8 -21.8 Q 60.4 -24.7 60.9 -27.9 L 60.9 -27.9 L 60.9 -27.9 Q 61.4 -31.2 61.4 -31.7 L 61.4 -31.7 L 61.4 -31.7 Q 61.4 -34.7 59.3 -34.7 L 59.3 -34.7 L 59.3 -34.7 Q 57.8 -34.7 56.2 -32.5 L 56.2 -32.5 L 56.2 -32.5 Q 54.6 -30.3 53.7 -25.8 L 53.7 -25.8 L 49.8 -5.7 L 37.2 -4.4 L 43.9 -38.3 L 54.3 -39.6 L 53.2 -33.1 L 53.2 -33.1 Q 54.9 -36.6 58 -38.1 L 58 -38.1 L 58 -38.1 Q 61 -39.6 65.8 -39.6 L 65.8 -39.6 L 65.8 -39.6 Q 68.6 -39.6 70.4 -38.2 L 70.4 -38.2 L 70.4 -38.2 Q 72.2 -36.9 72.8 -34.7 L 72.8 -34.7 L 72.8 -34.7 Q 73.8 -37 76.6 -38.3 L 76.6 -38.3 L 76.6 -38.3 Q 79.4 -39.6 82.8 -39.6 L 82.8 -39.6 L 82.8 -39.6 Q 86.3 -39.6 88 -38.8 L 88 -38.8 L 88 -38.8 Q 89.7 -38.1 90.7 -36.9 L 90.7 -36.9 L 90.7 -36.9 Q 92.4 -34.7 92.4 -30.6 L 92.4 -30.6 L 92.4 -30.6 Q 92.4 -26.5 90.7 -18.1 L 90.7 -18.1 L 90.7 -18.1 Q 89.8 -14 89.8 -12.5 L 89.8 -12.5 L 89.8 -12.5 Q 89.8 -11 90.6 -10.1 L 90.6 -10.1 L 90.6 -10.1 Q 91.5 -9.2 92.8 -9.1 L 92.8 -9.1 L 92.8 -9.1 Q 92.2 -6.9 89.9 -5.7 L 89.9 -5.7 L 89.9 -5.7 Q 87.7 -4.4 84.9 -4.4 Z M 100.5 -7.6 L 100.5 -7.6 L 100.5 -7.6 Q 99 -9.2 98.3 -11.9 L 98.3 -11.9 L 98.3 -11.9 Q 97.7 -14.5 97.7 -18.8 L 97.7 -18.8 L 97.7 -18.8 Q 97.7 -23.1 99.1 -27 L 99.1 -27 L 99.1 -27 Q 100.6 -30.9 103.3 -33.7 L 103.3 -33.7 L 103.3 -33.7 Q 108.8 -39.6 117.9 -39.6 L 117.9 -39.6 L 117.9 -39.6 Q 121.1 -39.6 123.5 -38.5 L 123.5 -38.5 L 134.5 -39.6 L 129.7 -14.6 L 129.7 -14.6 Q 129.5 -13.9 129.5 -12.4 L 129.5 -12.4 L 129.5 -12.4 Q 129.5 -11 130.4 -10.1 L 130.4 -10.1 L 130.4 -10.1 Q 131.3 -9.2 132.5 -9.1 L 132.5 -9.1 L 132.5 -9.1 Q 131.9 -6.9 129.6 -5.7 L 129.6 -5.7 L 129.6 -5.7 Q 127.2 -4.4 124.6 -4.4 L 124.6 -4.4 L 124.6 -4.4 Q 122 -4.4 120.2 -5.4 L 120.2 -5.4 L 120.2 -5.4 Q 118.5 -6.4 117.9 -8 L 117.9 -8 L 117.9 -8 Q 116.9 -6.4 114.7 -5.4 L 114.7 -5.4 L 114.7 -5.4 Q 112.6 -4.4 109.7 -4.4 L 109.7 -4.4 L 109.7 -4.4 Q 106.7 -4.4 104.4 -5.2 L 104.4 -5.2 L 104.4 -5.2 Q 102 -5.9 100.5 -7.6 Z M 114 -33.6 L 114 -33.6 L 114 -33.6 Q 113.3 -32.4 112.6 -30.5 L 112.6 -30.5 L 112.6 -30.5 Q 112 -28.5 110.9 -23.3 L 110.9 -23.3 L 110.9 -23.3 Q 109.9 -18.1 109.9 -14.4 L 109.9 -14.4 L 109.9 -14.4 Q 109.9 -10.7 110.5 -9.6 L 110.5 -9.6 L 110.5 -9.6 Q 111 -8.5 112.1 -8.5 L 112.1 -8.5 L 112.1 -8.5 Q 114.1 -8.5 115.6 -10.4 L 115.6 -10.4 L 115.6 -10.4 Q 117.1 -12.4 117.7 -15.8 L 117.7 -15.8 L 121.1 -34.6 L 121.1 -34.6 Q 119.7 -35.7 118.2 -35.7 L 118.2 -35.7 L 118.2 -35.7 Q 116.6 -35.7 115.7 -35.2 L 115.7 -35.2 L 115.7 -35.2 Q 114.7 -34.7 114 -33.6 Z M 142.2 -32.4 L 142.2 -32.4 L 142.2 -32.4 Q 144.4 -35.5 147.7 -37.5 L 147.7 -37.5 L 147.7 -37.5 Q 151 -39.6 155 -39.6 L 155 -39.6 L 155 -39.6 Q 159 -39.6 161 -38.3 L 161 -38.3 L 173.5 -39.6 L 169.1 -15 L 169.1 -15 Q 166.9 -2.5 162.2 2.5 L 162.2 2.5 L 162.2 2.5 Q 157.6 7.1 148.8 7.1 L 148.8 7.1 L 148.8 7.1 Q 142.1 7.1 138.2 5 L 138.2 5 L 138.2 5 Q 134.4 2.9 134.4 -0.6 L 134.4 -0.6 L 134.4 -0.6 Q 134.4 -3.2 136.4 -4.7 L 136.4 -4.7 L 136.4 -4.7 Q 138.4 -6.2 141.4 -6.2 L 141.4 -6.2 L 141.4 -6.2 Q 144.1 -6.2 146.2 -5 L 146.2 -5 L 146.2 -5 Q 147.4 -4.4 148 -3.5 L 148 -3.5 L 148 -3.5 Q 146.5 -2.2 146.5 -0.1 L 146.5 -0.1 L 146.5 -0.1 Q 146.5 2.7 149 2.7 L 149 2.7 L 149 2.7 Q 153.3 2.7 155.8 -7.5 L 155.8 -7.5 L 155.8 -7.5 Q 156.5 -10.2 157 -13 L 157 -13 L 157 -13 Q 154.2 -9.4 147.6 -9.4 L 147.6 -9.4 L 147.6 -9.4 Q 143.1 -9.4 140.5 -11.6 L 140.5 -11.6 L 140.5 -11.6 Q 137.8 -13.8 137.8 -18.9 L 137.8 -18.9 L 137.8 -18.9 Q 137.8 -22.1 138.9 -25.7 L 138.9 -25.7 L 138.9 -25.7 Q 140 -29.3 142.2 -32.4 Z M 150.5 -18.7 L 150.5 -18.7 L 150.5 -18.7 Q 150.5 -14.4 152.8 -14.4 L 152.8 -14.4 L 152.8 -14.4 Q 154.3 -14.4 155.8 -16 L 155.8 -16 L 155.8 -16 Q 156.9 -17.4 157.4 -19.4 L 157.4 -19.4 L 160.6 -35.8 L 160.6 -35.8 Q 160.3 -35.9 160 -36 L 160 -36 L 160 -36 Q 159.4 -36.3 158.5 -36.3 L 158.5 -36.3 L 158.5 -36.3 Q 154.6 -36.3 152.3 -29.9 L 152.3 -29.9 L 152.3 -29.9 Q 150.5 -24.9 150.5 -18.7 Z M 201.9 -16.5 L 201.9 -16.5 L 201.9 -16.5 Q 203.5 -15.4 203.5 -13 L 203.5 -13 L 203.5 -13 Q 203.5 -10.6 202.3 -9.1 L 202.3 -9.1 L 202.3 -9.1 Q 201.1 -7.5 199.1 -6.5 L 199.1 -6.5 L 199.1 -6.5 Q 195 -4.4 190.6 -4.4 L 190.6 -4.4 L 190.6 -4.4 Q 186.2 -4.4 183.6 -5.3 L 183.6 -5.3 L 183.6 -5.3 Q 181 -6.3 179.3 -8.1 L 179.3 -8.1 L 179.3 -8.1 Q 175.9 -11.5 175.9 -17.7 L 175.9 -17.7 L 175.9 -17.7 Q 175.9 -27.4 181.1 -33.2 L 181.1 -33.2 L 181.1 -33.2 Q 186.7 -39.6 196.5 -39.6 L 196.5 -39.6 L 196.5 -39.6 Q 202.6 -39.6 205.6 -37 L 205.6 -37 L 205.6 -37 Q 207.9 -35.1 207.9 -32 L 207.9 -32 L 207.9 -32 Q 207.9 -20.7 188.4 -20.7 L 188.4 -20.7 L 188.4 -20.7 Q 188.2 -19 188.2 -17.6 L 188.2 -17.6 L 188.2 -17.6 Q 188.2 -14.7 189.5 -13.6 L 189.5 -13.6 L 189.5 -13.6 Q 190.8 -12.4 193.2 -12.4 L 193.2 -12.4 L 193.2 -12.4 Q 195.6 -12.4 198.2 -13.6 L 198.2 -13.6 L 198.2 -13.6 Q 200.8 -14.7 201.9 -16.5 Z M 188.9 -23.5 L 188.9 -23.5 L 188.9 -23.5 Q 193.4 -23.5 196 -26.3 L 196 -26.3 L 196 -26.3 Q 198.6 -29 198.6 -33.2 L 198.6 -33.2 L 198.6 -33.2 Q 198.6 -34.7 198.1 -35.5 L 198.1 -35.5 L 198.1 -35.5 Q 197.6 -36.3 196.5 -36.3 L 196.5 -36.3 L 196.5 -36.3 Q 195.4 -36.3 194.5 -35.9 L 194.5 -35.9 L 194.5 -35.9 Q 193.5 -35.5 192.6 -34.1 L 192.6 -34.1 L 192.6 -34.1 Q 190.2 -30.9 188.9 -23.5 Z M 229.2 -28.1 L 229.2 -28.1 L 229.2 -28.1 Q 230.1 -30.5 230.1 -32.5 L 230.1 -32.5 L 230.1 -32.5 Q 230.1 -36.3 227 -36.3 L 227 -36.3 L 227 -36.3 Q 225.4 -36.3 224.1 -34.9 L 224.1 -34.9 L 224.1 -34.9 Q 222.8 -33.4 222.8 -31.6 L 222.8 -31.6 L 222.8 -31.6 Q 222.8 -30.4 223.8 -29.3 L 223.8 -29.3 L 223.8 -29.3 Q 225.3 -27.9 229 -25.6 L 229 -25.6 L 229 -25.6 Q 232.8 -23.3 234.3 -21.4 L 234.3 -21.4 L 234.3 -21.4 Q 235.7 -19.6 235.7 -17 L 235.7 -17 L 235.7 -17 Q 235.7 -14.4 234.5 -12 L 234.5 -12 L 234.5 -12 Q 233.2 -9.6 231 -8 L 231 -8 L 231 -8 Q 226.2 -4.4 218.5 -4.4 L 218.5 -4.4 L 218.5 -4.4 Q 214.3 -4.4 211.1 -6.6 L 211.1 -6.6 L 211.1 -6.6 Q 207.9 -8.7 207.9 -11.2 L 207.9 -11.2 L 207.9 -11.2 Q 207.9 -13.7 209.8 -15.1 L 209.8 -15.1 L 209.8 -15.1 Q 211.6 -16.6 214.3 -16.6 L 214.3 -16.6 L 214.3 -16.6 Q 217 -16.6 218.6 -15.6 L 218.6 -15.6 L 218.6 -15.6 Q 217.8 -13.5 217.8 -12.1 L 217.8 -12.1 L 217.8 -12.1 Q 217.8 -7.8 221.4 -7.8 L 221.4 -7.8 L 221.4 -7.8 Q 222.9 -7.8 223.9 -8.8 L 223.9 -8.8 L 223.9 -8.8 Q 225 -9.8 225 -11.4 L 225 -11.4 L 225 -11.4 Q 225 -14.7 219.4 -18.1 L 219.4 -18.1 L 219.4 -18.1 Q 215 -21.1 213.9 -22.2 L 213.9 -22.2 L 213.9 -22.2 Q 212.2 -24.3 212.2 -26.8 L 212.2 -26.8 L 212.2 -26.8 Q 212.2 -29.4 213.4 -31.8 L 213.4 -31.8 L 213.4 -31.8 Q 214.6 -34.3 216.9 -36 L 216.9 -36 L 216.9 -36 Q 221.6 -39.6 229.7 -39.6 L 229.7 -39.6 L 229.7 -39.6 Q 233.8 -39.6 236.3 -37.9 L 236.3 -37.9 L 236.3 -37.9 Q 238.8 -36.3 238.8 -33.4 L 238.8 -33.4 L 238.8 -33.4 Q 238.8 -30.6 237.1 -29 L 237.1 -29 L 237.1 -29 Q 235.4 -27.4 232.3 -27.4 L 232.3 -27.4 L 232.3 -27.4 Q 230.2 -27.4 229.2 -28.1 Z M 280.2 -26.3 L 293.2 -27.4 L 293.2 -27.4 Q 288.6 -17.3 288.6 -5.6 L 288.6 -5.6 L 288.6 -5.6 Q 286.8 -4.4 284.3 -4.4 L 284.3 -4.4 L 284.3 -4.4 Q 281.8 -4.4 280.2 -5.6 L 280.2 -5.6 L 280.2 -5.6 Q 278.6 -6.8 278.3 -8 L 278.3 -8 L 278.3 -8 Q 276.7 -6.3 274.1 -5.3 L 274.1 -5.3 L 274.1 -5.3 Q 271.5 -4.4 268.7 -4.4 L 268.7 -4.4 L 268.7 -4.4 Q 266 -4.4 263.6 -5.3 L 263.6 -5.3 L 263.6 -5.3 Q 261.2 -6.2 259.3 -8.2 L 259.3 -8.2 L 259.3 -8.2 Q 255.2 -12.5 255.2 -20.8 L 255.2 -20.8 L 255.2 -20.8 Q 255.2 -33.6 262.1 -41.2 L 262.1 -41.2 L 262.1 -41.2 Q 269.1 -49.2 281.6 -49.2 L 281.6 -49.2 L 281.6 -49.2 Q 290.2 -49.2 293.3 -44.7 L 293.3 -44.7 L 293.3 -44.7 Q 294.3 -43.3 294.3 -41.6 L 294.3 -41.6 L 294.3 -41.6 Q 294.3 -39.9 293.5 -38.5 L 293.5 -38.5 L 293.5 -38.5 Q 292.8 -37 291.6 -35.9 L 291.6 -35.9 L 291.6 -35.9 Q 288.9 -33.3 285.5 -33.3 L 285.5 -33.3 L 285.5 -33.3 Q 284.2 -33.3 282.9 -33.8 L 282.9 -33.8 L 282.9 -33.8 Q 283.1 -35.7 283.1 -37.9 L 283.1 -37.9 L 283.1 -37.9 Q 283.1 -40.2 283 -41.2 L 283 -41.2 L 283 -41.2 Q 282.8 -42.2 282.4 -43 L 282.4 -43 L 282.4 -43 Q 281.6 -44.8 279.8 -44.8 L 279.8 -44.8 L 279.8 -44.8 Q 277.9 -44.8 275.9 -42.8 L 275.9 -42.8 L 275.9 -42.8 Q 273.9 -40.9 272.3 -37.7 L 272.3 -37.7 L 272.3 -37.7 Q 268.8 -30.5 268.8 -21.9 L 268.8 -21.9 L 268.8 -21.9 Q 268.8 -17.9 270.3 -15.1 L 270.3 -15.1 L 270.3 -15.1 Q 272 -12 274.9 -12 L 274.9 -12 L 274.9 -12 Q 276 -12 276.9 -12.5 L 276.9 -12.5 L 276.9 -12.5 Q 277.8 -13 278.2 -13.4 L 278.2 -13.4 L 280.2 -26.3 Z M 299.1 -7.6 L 299.1 -7.6 L 299.1 -7.6 Q 297.6 -9.2 296.9 -11.9 L 296.9 -11.9 L 296.9 -11.9 Q 296.2 -14.5 296.2 -18.8 L 296.2 -18.8 L 296.2 -18.8 Q 296.2 -23.1 297.7 -27 L 297.7 -27 L 297.7 -27 Q 299.2 -30.9 301.9 -33.7 L 301.9 -33.7 L 301.9 -33.7 Q 307.4 -39.6 316.5 -39.6 L 316.5 -39.6 L 316.5 -39.6 Q 319.7 -39.6 322.1 -38.5 L 322.1 -38.5 L 333 -39.6 L 328.3 -14.6 L 328.3 -14.6 Q 328.1 -13.9 328.1 -12.4 L 328.1 -12.4 L 328.1 -12.4 Q 328.1 -11 329 -10.1 L 329 -10.1 L 329 -10.1 Q 329.8 -9.2 331.1 -9.1 L 331.1 -9.1 L 331.1 -9.1 Q 330.5 -6.9 328.2 -5.7 L 328.2 -5.7 L 328.2 -5.7 Q 325.8 -4.4 323.2 -4.4 L 323.2 -4.4 L 323.2 -4.4 Q 320.6 -4.4 318.8 -5.4 L 318.8 -5.4 L 318.8 -5.4 Q 317 -6.4 316.5 -8 L 316.5 -8 L 316.5 -8 Q 315.5 -6.4 313.3 -5.4 L 313.3 -5.4 L 313.3 -5.4 Q 311.2 -4.4 308.2 -4.4 L 308.2 -4.4 L 308.2 -4.4 Q 305.3 -4.4 303 -5.2 L 303 -5.2 L 303 -5.2 Q 300.6 -5.9 299.1 -7.6 Z M 312.6 -33.6 L 312.6 -33.6 L 312.6 -33.6 Q 311.9 -32.4 311.2 -30.5 L 311.2 -30.5 L 311.2 -30.5 Q 310.6 -28.5 309.5 -23.3 L 309.5 -23.3 L 309.5 -23.3 Q 308.5 -18.1 308.5 -14.4 L 308.5 -14.4 L 308.5 -14.4 Q 308.5 -10.7 309 -9.6 L 309 -9.6 L 309 -9.6 Q 309.6 -8.5 310.6 -8.5 L 310.6 -8.5 L 310.6 -8.5 Q 312.7 -8.5 314.2 -10.4 L 314.2 -10.4 L 314.2 -10.4 Q 315.7 -12.4 316.3 -15.8 L 316.3 -15.8 L 319.7 -34.6 L 319.7 -34.6 Q 318.3 -35.7 316.8 -35.7 L 316.8 -35.7 L 316.8 -35.7 Q 315.2 -35.7 314.3 -35.2 L 314.3 -35.2 L 314.3 -35.2 Q 313.3 -34.7 312.6 -33.6 Z M 351.8 -9.2 L 351.8 -9.2 L 351.8 -9.2 Q 349.8 -4.4 343.5 -4.4 L 343.5 -4.4 L 343.5 -4.4 Q 340.3 -4.4 338.2 -6.6 L 338.2 -6.6 L 338.2 -6.6 Q 336.6 -8.5 336.6 -10.6 L 336.6 -10.6 L 336.6 -10.6 Q 336.6 -15.4 338.8 -25.9 L 338.8 -25.9 L 343.5 -50.5 L 356.5 -51.7 L 350.3 -19.4 L 350.3 -19.4 Q 349.2 -14.6 349.2 -13 L 349.2 -13 L 349.2 -13 Q 349.2 -9.3 351.8 -9.2 Z M 372.5 -9.2 L 372.5 -9.2 L 372.5 -9.2 Q 370.6 -4.4 364.2 -4.4 L 364.2 -4.4 L 364.2 -4.4 Q 361 -4.4 359 -6.6 L 359 -6.6 L 359 -6.6 Q 357.3 -8.5 357.3 -10.6 L 357.3 -10.6 L 357.3 -10.6 Q 357.3 -15.4 359.5 -25.9 L 359.5 -25.9 L 364.2 -50.5 L 377.2 -51.7 L 371 -19.4 L 371 -19.4 Q 369.9 -14.6 369.9 -13 L 369.9 -13 L 369.9 -13 Q 369.9 -9.3 372.5 -9.2 Z M 403.9 -16.5 L 403.9 -16.5 L 403.9 -16.5 Q 405.5 -15.4 405.5 -13 L 405.5 -13 L 405.5 -13 Q 405.5 -10.6 404.3 -9.1 L 404.3 -9.1 L 404.3 -9.1 Q 403.1 -7.5 401.1 -6.5 L 401.1 -6.5 L 401.1 -6.5 Q 397 -4.4 392.6 -4.4 L 392.6 -4.4 L 392.6 -4.4 Q 388.2 -4.4 385.6 -5.3 L 385.6 -5.3 L 385.6 -5.3 Q 383 -6.3 381.2 -8.1 L 381.2 -8.1 L 381.2 -8.1 Q 377.8 -11.5 377.8 -17.7 L 377.8 -17.7 L 377.8 -17.7 Q 377.8 -27.4 383.1 -33.2 L 383.1 -33.2 L 383.1 -33.2 Q 388.7 -39.6 398.5 -39.6 L 398.5 -39.6 L 398.5 -39.6 Q 404.6 -39.6 407.6 -37 L 407.6 -37 L 407.6 -37 Q 409.8 -35.1 409.8 -32 L 409.8 -32 L 409.8 -32 Q 409.8 -20.7 390.4 -20.7 L 390.4 -20.7 L 390.4 -20.7 Q 390.1 -19 390.1 -17.6 L 390.1 -17.6 L 390.1 -17.6 Q 390.1 -14.7 391.4 -13.6 L 391.4 -13.6 L 391.4 -13.6 Q 392.8 -12.4 395.2 -12.4 L 395.2 -12.4 L 395.2 -12.4 Q 397.6 -12.4 400.2 -13.6 L 400.2 -13.6 L 400.2 -13.6 Q 402.8 -14.7 403.9 -16.5 Z M 390.8 -23.5 L 390.8 -23.5 L 390.8 -23.5 Q 395.4 -23.5 398 -26.3 L 398 -26.3 L 398 -26.3 Q 400.6 -29 400.6 -33.2 L 400.6 -33.2 L 400.6 -33.2 Q 400.6 -34.7 400.1 -35.5 L 400.1 -35.5 L 400.1 -35.5 Q 399.5 -36.3 398.5 -36.3 L 398.5 -36.3 L 398.5 -36.3 Q 397.4 -36.3 396.4 -35.9 L 396.4 -35.9 L 396.4 -35.9 Q 395.5 -35.5 394.6 -34.1 L 394.6 -34.1 L 394.6 -34.1 Q 392.2 -30.9 390.8 -23.5 Z M 432.1 -23.6 L 432.1 -23.6 L 432.1 -23.6 Q 434.4 -27.7 434.4 -31.9 L 434.4 -31.9 L 434.4 -31.9 Q 434.4 -34.7 432.4 -34.7 L 432.4 -34.7 L 432.4 -34.7 Q 430.8 -34.7 429.2 -32 L 429.2 -32 L 429.2 -32 Q 427.6 -29.4 427.1 -26 L 427.1 -26 L 423.7 -5.7 L 410.5 -4.4 L 417 -38.3 L 427.6 -39.6 L 426.4 -33.1 L 426.4 -33.1 Q 429.6 -39.6 436.6 -39.6 L 436.6 -39.6 L 436.6 -39.6 Q 440.3 -39.6 442.3 -37.7 L 442.3 -37.7 L 442.3 -37.7 Q 444.3 -35.7 444.3 -31.8 L 444.3 -31.8 L 444.3 -31.8 Q 444.3 -27.9 441.8 -25.4 L 441.8 -25.4 L 441.8 -25.4 Q 439.2 -22.9 434.7 -22.9 L 434.7 -22.9 L 434.7 -22.9 Q 432.8 -22.9 432.1 -23.6 Z M 465.7 -12.9 L 465.7 -12.9 L 465.7 -12.9 Q 462.4 -9.4 456.3 -9.4 L 456.3 -9.4 L 456.3 -9.4 Q 448.7 -9.4 447.1 -15 L 447.1 -15 L 447.1 -15 Q 446.6 -16.7 446.6 -18.5 L 446.6 -18.5 L 446.6 -18.5 Q 446.6 -20.4 447 -22.3 L 447 -22.3 L 450 -38.3 L 463 -39.6 L 459.4 -21 L 459.4 -21 Q 459.3 -20.1 459.1 -19.2 L 459.1 -19.2 L 459.1 -19.2 Q 458.9 -18.3 458.9 -17.4 L 458.9 -17.4 L 458.9 -17.4 Q 458.9 -16.5 459.3 -15.9 L 459.3 -15.9 L 459.3 -15.9 Q 459.6 -15.3 460 -14.9 L 460 -14.9 L 460 -14.9 Q 460.8 -14.4 462.2 -14.4 L 462.2 -14.4 L 462.2 -14.4 Q 463.5 -14.4 464.7 -16 L 464.7 -16 L 464.7 -16 Q 465.9 -17.7 466.5 -20.6 L 466.5 -20.6 L 470 -38.3 L 482.6 -39.6 L 477.8 -14.4 L 477.8 -14.4 Q 475.4 -2.1 470.6 2.7 L 470.6 2.7 L 470.6 2.7 Q 468.1 5.2 464.9 6.2 L 464.9 6.2 L 464.9 6.2 Q 461.6 7.2 457.5 7.2 L 457.5 7.2 L 457.5 7.2 Q 450.7 7.2 446.9 5.1 L 446.9 5.1 L 446.9 5.1 Q 443.1 3 443.1 -0.5 L 443.1 -0.5 L 443.1 -0.5 Q 443.1 -3.2 445 -4.7 L 445 -4.7 L 445 -4.7 Q 447 -6.2 450.1 -6.2 L 450.1 -6.2 L 450.1 -6.2 Q 452.8 -6.2 454.8 -5 L 454.8 -5 L 454.8 -5 Q 456.1 -4.3 456.6 -3.4 L 456.6 -3.4 L 456.6 -3.4 Q 455.2 -2.1 455.2 0 L 455.2 0 L 455.2 0 Q 455.2 2.8 457.7 2.8 L 457.7 2.8 L 457.7 2.8 Q 461.9 2.8 464.4 -6.9 L 464.4 -6.9 L 464.4 -6.9 Q 465.1 -9.8 465.7 -12.9 Z" fill="url(#editing-gradient-gradient)"></path></g></g><style>text {
  font-size: 64px;
  font-family: Arial Black;
  dominant-baseline: central;
  text-anchor: middle;
}</style></svg>